<?xml version="1.0" encoding="UTF-8"?>
<svg xmlns="http://www.w3.org/2000/svg" viewBox="0 0 256 256">
    <defs/>
    <g>
        <g transform="matrix(0.5, 0, 0, 0.5, 3, 3)">
            <defs>
                <linearGradient y2="0%" y1="100%" x1="0%" id="linear" x2="0%">
                    <stop offset="0" stop-color="#33d15a"/>
                    <stop offset="1" stop-color="#2dbc50"/>
                </linearGradient>
            </defs>
            <circle cx="250" r="200" fill="transparent" cy="250"/>
            <path stroke-dasharray="897, 1256" d="M 250,50 A 200 200 0 1 1 250 450 A 200 200 0 1 1 250 50"
                  stroke="url(#linear)" stroke-linecap="round" fill="transparent" stroke-width="50"/>
        </g>
        <g transform="matrix(0.294084, 0, 0, 0.293397, 57.708203, 58.026997)">
            <path stroke-width="0"
                  d="M 218.584 248.602 C 219.709 252.843 219.508 254.822 219.31 260.216 C 218.992 268.875 215.431 282.011 214.954 297.963 C 214.294 320.053 218.367 364.22 218.584 383.621 C 218.717 395.55 219.633 402.087 217.858 409.027 C 216.38 414.805 213.708 419.705 210.236 423.182 C 206.954 426.469 201.867 428.696 197.895 429.716 C 194.398 430.614 191.393 430.803 187.733 429.716 C 183.191 428.366 176.203 424.304 172.852 420.642 C 169.963 417.486 169.095 416.995 167.77 409.753 C 164.359 391.109 163.949 306.718 164.867 281.993 C 165.338 269.301 167.53 264.545 167.77 258.038 C 167.954 253.059 165.92 250.025 167.044 245.698 C 167.177 245.187 167.338 244.651 167.523 244.097 C 167.48 243.7 167.438 243.294 167.397 242.882 C 166.827 243.113 166.194 243.308 165.488 243.432 C 158.417 244.675 138.96 244.327 127.74 243.432 C 118.003 242.654 108.137 241.733 101.608 239.076 C 96.547 237.017 93.852 234.683 90.356 230.728 C 86.109 225.924 81.367 220.286 78.742 211.129 C 74.999 198.073 74.592 168.335 75.112 155.96 C 75.431 148.38 75.885 145.026 78.016 139.99 C 80.248 134.714 85.691 128.305 88.541 125.109 C 90.391 123.035 91.828 122.654 93.26 121.116 C 94.742 119.523 94.944 117.521 97.252 115.672 C 100.779 112.847 109.243 108.297 114.674 106.961 C 119.303 105.822 123.244 106.115 127.74 106.961 C 132.654 107.886 137.43 111.548 142.984 112.768 C 148.969 114.083 156.321 111.958 162.584 114.22 C 169.307 116.648 179.361 125.266 181.82 127.649 C 182.76 128.56 181.991 128.598 182.909 129.464 C 185.185 131.61 194.661 135.267 199.968 140.716 C 206.319 147.236 214.351 159.849 217.39 167.574 C 219.657 173.339 219.626 179.855 219.568 182.818 C 219.537 184.357 218.711 184.286 218.842 185.722 C 219.079 188.312 222.456 193.69 223.197 198.062 C 223.97 202.62 223.747 207.101 223.197 212.581 C 222.596 218.571 221.68 227.156 219.516 233.338 C 219.667 238.856 219.398 244.374 218.522 248.37 C 218.543 248.448 218.564 248.525 218.584 248.602 Z M 342.536 282.284 C 343.066 290.895 345.553 292.276 346.166 297.528 C 346.794 302.914 346.396 308.522 346.166 314.224 C 345.928 320.127 344.835 326.319 344.714 332.371 C 344.594 338.418 345.776 344.342 345.44 350.519 C 345.092 356.915 342.713 364.059 342.536 370.119 C 342.377 375.585 345.195 380.198 343.988 385.363 C 342.628 391.185 338.325 399.477 333.463 403.147 C 328.866 406.617 321.644 408.148 316.041 407.503 C 310.389 406.853 303.43 402.826 299.708 399.155 C 296.466 395.957 295.168 392.694 293.901 387.54 C 292.169 380.498 292.274 368.113 292.449 359.23 C 292.611 351.013 294.405 343.443 294.627 336.001 C 294.836 328.956 293.673 321.371 293.901 315.676 C 294.083 311.11 295.568 307.988 295.352 304.061 C 295.13 300.007 292.988 296.653 292.449 291.721 C 291.77 285.516 292.05 278.337 292.449 269.217 C 292.972 257.246 295.454 240.455 296.078 224.937 C 296.693 209.66 295.274 187.574 295.88 175.492 C 295.451 174.995 295.035 174.47 294.627 173.914 C 292.481 170.993 290.351 166.568 289.545 163.025 C 288.813 159.808 289.021 157.913 289.545 153.588 C 290.383 146.678 292.076 133.204 296.078 123.826 C 300.196 114.178 308.229 102.704 314.226 96.605 C 318.732 92.022 321.365 90.829 327.655 87.894 C 336.848 83.605 353.536 75.912 366.854 74.827 C 380.154 73.744 397.119 77.526 407.505 81.361 C 415.595 84.348 421.444 88.265 426.016 93.338 C 430.367 98.166 432.751 101.923 434.727 110.76 C 438.004 125.415 438.119 167.793 436.904 179.721 C 436.346 185.202 435.795 185.997 434.001 189.158 C 431.884 192.887 429.367 197.21 424.201 200.409 C 417.002 204.868 403.012 208.503 391.535 210.572 C 379.59 212.726 362.402 213.632 353.788 212.75 C 350.697 212.433 348.409 211.885 346.429 211.147 C 344.462 237.34 341.793 270.188 342.536 282.284 Z"
                  style="stroke-width: 2px; paint-order: fill markers; stroke: rgb(255, 255, 255); fill: rgb(255, 255, 255);"/>
            <g fill="#000000" transform="matrix(0.1, 0, 0, -0.1, 0, 512.000008)" stroke="none">
                <path d="M3550 4425 c-341 -69 -606 -322 -693 -662 l-22 -88 0 -1210 0 -1210 28 -57 c35 -72 111 -141 178 -163 76 -25 258 -18 317 13 56 30 114 90 143 150 l24 47 3 827 2 827 263 3 c245 4 266 5 317 26 161 66 283 217 310 383 16 103 13 650 -5 734 -22 102 -59 171 -134 246 -74 74 -140 112 -233 134 -81 19 -404 19 -498 0z m523 -153 c71 -32 149 -111 183 -185 l29 -62 3 -327 c3 -275 1 -337 -13 -390 -28 -109 -88 -182 -195 -239 -44 -23 -53 -24 -348 -29 l-304 -5 -19 -24 c-18 -22 -19 -48 -19 -682 l0 -659 -210 0 -210 0 0 948 c0 606 4 978 11 1032 33 267 210 496 460 597 111 45 169 52 384 50 182 -2 204 -5 248 -25z m-683 -2859 c0 -136 -16 -184 -71 -224 -29 -20 -48 -25 -125 -27 -70 -3 -99 0 -122 12 -47 24 -79 64 -91 112 -12 47 -15 227 -4 237 3 4 98 7 210 7 l203 0 0 -117z"/>
                <path d="M3983 3880 c-39 -16 -43 -40 -43 -249 0 -188 1 -202 20 -221 11 -11 33 -20 50 -20 17 0 39 9 50 20 19 19 20 33 20 224 0 180 -2 206 -17 224 -22 25 -51 33 -80 22z"/>
                <path d="M1045 4096 c-122 -40 -247 -142 -299 -244 -52 -103 -56 -138 -56 -512 0 -374 3 -402 57 -508 60 -118 207 -227 342 -252 29 -6 152 -10 272 -10 l218 0 3 -819 3 -818 35 -69 c41 -81 106 -136 189 -160 83 -25 230 -15 296 19 59 30 114 85 146 147 l24 45 3 1190 c2 855 0 1211 -8 1263 -31 195 -122 365 -273 509 -93 88 -197 150 -325 194 l-97 33 -245 3 c-182 2 -255 -1 -285 -11z m539 -146 c248 -63 442 -249 528 -505 l23 -70 3 -1018 3 -1017 -205 0 -205 0 -3 665 c-3 622 -4 665 -21 682 -16 16 -47 18 -315 23 -295 5 -297 5 -352 31 -82 39 -135 90 -172 167 l-33 67 0 370 0 370 28 57 c35 71 119 150 190 177 46 18 76 20 253 20 168 1 213 -2 278 -19z m556 -2868 c0 -105 -3 -124 -23 -162 -33 -63 -88 -90 -181 -90 -86 0 -149 27 -183 79 -21 31 -23 46 -23 162 l0 129 205 0 205 0 0 -118z"/>
                <path d="M1059 3541 c-24 -19 -24 -21 -24 -231 0 -210 0 -212 24 -231 30 -25 66 -24 91 1 19 19 20 33 20 230 0 197 -1 211 -20 230 -25 25 -61 26 -91 1z"/>
            </g>
        </g>
    </g>
</svg>